<svg version="1.0" xmlns="http://www.w3.org/2000/svg"
 width="256.000000pt" height="256.000000pt" viewBox="0 0 256.000000 256.000000"
 preserveAspectRatio="xMidYMid meet">

<g transform="translate(0.000000,256.000000) scale(0.100000,-0.100000)"
fill="currentColor" stroke="none">
<path d="M1134 2537 c-3 -9 -3 -34 1 -55 14 -75 46 -131 113 -193 36 -34 57
-59 46 -55 -31 9 -149 24 -154 19 -9 -8 43 -45 98 -70 66 -31 61 -40 -11 -19
-54 16 -107 57 -107 83 0 16 -117 73 -150 73 -17 0 -18 -3 -9 -27 8 -22 6 -30
-12 -50 -29 -30 -58 -29 -122 3 -180 92 -375 104 -524 34 -35 -16 -63 -33 -63
-37 0 -5 44 -7 98 -5 173 7 306 -40 343 -121 34 -77 25 -93 -67 -114 -156 -34
-287 -128 -353 -253 -31 -57 -52 -150 -35 -150 5 1 25 26 44 57 38 61 126 134
188 154 49 16 126 16 146 0 29 -24 18 -54 -39 -104 -31 -27 -65 -67 -76 -89
-24 -47 -39 -126 -29 -154 6 -16 12 -10 33 32 43 85 120 139 165 115 28 -15
42 3 31 42 -13 47 -11 155 5 215 26 97 91 184 167 222 50 26 86 27 44 1 -94
-57 -173 -193 -182 -313 -12 -163 52 -300 183 -390 71 -48 130 -69 299 -107
195 -43 302 -96 405 -200 111 -112 157 -225 148 -361 -5 -71 -39 -149 -83
-190 l-22 -21 -6 63 c-19 204 -143 378 -306 428 -35 11 -72 20 -82 20 -12 0
-21 10 -25 28 -12 48 -41 96 -86 138 -45 44 -115 84 -144 84 -16 0 -15 -2 3
-22 44 -50 43 -51 -48 -46 -55 4 -108 15 -153 32 -38 14 -71 24 -74 21 -9 -9
51 -66 92 -87 43 -22 40 -29 -20 -46 -62 -18 -111 -14 -188 13 -39 13 -72 22
-75 19 -10 -10 76 -80 125 -103 24 -12 65 -24 90 -28 38 -5 43 -8 32 -19 -7
-7 -31 -19 -52 -27 -52 -18 -56 -34 -11 -43 56 -10 131 4 222 42 46 19 93 34
106 34 22 0 55 -16 47 -22 -3 -2 -22 -16 -42 -31 -22 -16 -48 -50 -65 -84 -24
-50 -28 -69 -27 -143 1 -141 58 -248 181 -342 74 -55 149 -85 255 -100 43 -6
78 -15 78 -19 0 -4 -25 -34 -55 -67 -92 -99 -235 -157 -372 -150 -63 3 -79 -3
-45 -17 32 -14 207 -18 262 -6 124 27 263 126 320 229 20 35 37 49 95 77 175
84 266 228 268 425 1 100 -19 185 -68 289 -42 87 -44 103 -10 71 74 -69 124
-259 108 -407 -5 -46 -5 -83 0 -83 19 0 60 115 65 183 l5 70 21 -39 21 -39 3
48 c4 58 -28 177 -68 257 -31 61 -28 77 5 40 18 -20 45 -27 45 -12 0 16 -57
87 -108 134 -28 26 -86 71 -129 99 -43 29 -67 49 -53 45 14 -3 43 -9 65 -12
l40 -6 -24 20 c-38 31 -144 71 -281 107 l-125 32 43 12 c23 7 42 16 42 20 0 5
-69 11 -152 14 -170 6 -211 15 -267 63 -69 60 -76 161 -16 233 15 17 23 36 19
45 -4 11 5 22 30 37 20 11 36 25 36 30 0 5 26 9 58 8 52 -1 54 -2 27 -11 -72
-24 -135 -51 -135 -58 0 -5 39 -12 88 -16 l87 -7 -40 -14 c-47 -15 -103 -58
-93 -69 5 -4 39 0 77 9 91 22 99 22 74 -5 -26 -29 -44 -64 -36 -71 3 -4 25 5
48 19 67 39 174 57 258 44 90 -14 122 -32 147 -81 22 -43 51 -59 106 -59 49 0
71 14 84 56 14 40 8 53 -15 34 -13 -11 -14 -10 -9 4 7 18 -3 21 -25 7 -11 -7
-27 2 -59 34 -24 24 -74 59 -111 77 -72 36 -82 44 -74 65 12 31 192 -6 234
-48 19 -19 19 -19 31 1 15 23 28 26 28 6 0 -21 19 -30 35 -16 11 9 14 6 17
-17 l4 -28 14 28 c16 32 30 35 30 6 0 -35 17 -11 30 41 23 95 -26 148 -124
136 -77 -9 -147 26 -180 91 -25 50 -29 53 -146 107 -72 33 -180 139 -215 211
-15 30 -31 52 -36 49 -26 -16 6 -139 55 -213 19 -28 30 -51 24 -51 -5 0 -45
18 -88 41 -86 44 -160 113 -202 186 -21 37 -28 43 -34 30z m571 -397 c0 -18
-6 -26 -23 -28 -24 -4 -38 18 -28 44 3 9 15 14 28 12 17 -2 23 -10 23 -28z
m-416 -49 c10 -6 -18 -11 -80 -13 -52 -2 -96 -2 -98 -1 -2 2 7 7 20 12 31 12
140 13 158 2z m86 -1225 c94 -56 154 -172 162 -318 7 -104 7 -104 -107 -102
-91 2 -170 29 -239 84 -135 107 -135 303 -1 359 42 18 135 6 185 -23z"/>
<path d="M2032 2248 c-19 -19 -14 -63 11 -86 27 -25 65 -28 93 -8 27 20 14 28
-24 14 -27 -10 -34 -9 -52 7 -29 26 -23 59 12 63 21 3 39 -8 79 -45 65 -60 88
-110 89 -187 0 -75 -24 -117 -86 -147 -63 -30 -128 -22 -246 31 -139 63 -189
81 -207 77 -13 -3 -12 -5 4 -12 11 -4 72 -31 135 -60 63 -29 133 -58 155 -64
92 -25 193 -1 231 54 11 15 34 42 52 59 47 43 62 77 61 133 -1 101 -40 167
-76 131 -14 -14 -15 -22 -5 -43 7 -14 20 -25 32 -25 37 0 40 -94 3 -149 -16
-24 -18 -24 -21 -6 -22 132 -52 191 -125 245 -43 31 -93 40 -115 18z m268 -75
c0 -13 -3 -13 -15 -3 -8 7 -12 16 -9 21 8 13 24 1 24 -18z"/>
</g>
</svg>
